<svg width="60" height="60" viewBox="0 0 60 60" fill="none" xmlns="http://www.w3.org/2000/svg">
<circle cx="30" cy="30" r="30" fill="#2AAC47"/>
<path d="M43.25 29.5068H17.25" stroke="white" stroke-width="3" stroke-linecap="round"/>
<path d="M30.25 42.5068V16.5068" stroke="white" stroke-width="3" stroke-linecap="round"/>
<path d="M37.5038 40.9268V46.6868H38.4758C39.3478 46.6868 40.0598 46.4268 40.6118 45.9068C41.1638 45.3868 41.4398 44.6868 41.4398 43.8068C41.4398 42.9268 41.1638 42.2268 40.6118 41.7068C40.0598 41.1868 39.3478 40.9268 38.4758 40.9268H37.5038ZM38.4638 48.0068H36.7118C36.5438 48.0068 36.3998 47.9508 36.2798 47.8388C36.1678 47.7188 36.1118 47.5748 36.1118 47.4068V40.2068C36.1118 40.0388 36.1678 39.8988 36.2798 39.7868C36.3918 39.6668 36.5318 39.6068 36.6998 39.6068H38.4638C39.7038 39.6068 40.7398 39.9948 41.5718 40.7708C42.4118 41.5468 42.8318 42.5588 42.8318 43.8068C42.8318 45.0548 42.4118 46.0668 41.5718 46.8428C40.7398 47.6188 39.7038 48.0068 38.4638 48.0068Z" fill="white"/>
</svg>
