<svg width="32" height="32" viewBox="0 0 32 32" fill="none" xmlns="http://www.w3.org/2000/svg">
<path d="M6.89921 19.3638L9.66231 19.3492C10.1199 19.3468 10.4893 18.9735 10.4869 18.5159L10.4722 15.7528C10.4698 15.2952 10.0965 14.9258 9.63891 14.9282L6.87581 14.9429C6.41824 14.9453 6.04884 15.3186 6.05126 15.7762L6.06589 18.5393C6.06832 18.9969 6.44164 19.3663 6.89921 19.3638Z" fill="#627073"/>
<path d="M6.93437 25.9952L9.69747 25.9806C10.155 25.9781 10.5244 25.6048 10.522 25.1472L10.5074 22.3841C10.505 21.9266 10.1316 21.5572 9.67406 21.5596L6.91096 21.5742C6.45339 21.5766 6.084 21.95 6.08642 22.4075L6.10105 25.1706C6.10347 25.6282 6.4768 25.9976 6.93437 25.9952Z" fill="#627073"/>
<path d="M14.6355 19.3233L17.3986 19.3087C17.8562 19.3063 18.2256 18.9329 18.2232 18.4754L18.2086 15.7123C18.2061 15.2547 17.8328 14.8853 17.3752 14.8877L14.6121 14.9023C14.1546 14.9048 13.7852 15.2781 13.7876 15.7357L13.8022 18.4988C13.8046 18.9563 14.178 19.3257 14.6355 19.3233Z" fill="#627073"/>
<path d="M14.6707 25.9542L17.4338 25.9395C17.8914 25.9371 18.2608 25.5638 18.2583 25.1062L18.2437 22.3431C18.2413 21.8856 17.868 21.5162 17.4104 21.5186L14.6473 21.5332C14.1897 21.5356 13.8203 21.909 13.8227 22.3665L13.8374 25.1296C13.8398 25.5872 14.2131 25.9566 14.6707 25.9542Z" fill="#627073"/>
<path d="M22.3738 19.2823L25.1369 19.2677C25.5945 19.2652 25.9639 18.8919 25.9615 18.4343L25.9468 15.6712C25.9444 15.2137 25.5711 14.8443 25.1135 14.8467L22.3504 14.8613C21.8928 14.8638 21.5235 15.2371 21.5259 15.6947L21.5405 18.4578C21.5429 18.9153 21.9163 19.2847 22.3738 19.2823Z" fill="#627073"/>
<path d="M25.8936 5.99997L24.7884 6.00582L24.7767 3.79534C24.7735 3.18524 24.2757 2.69272 23.6656 2.69595L22.5604 2.7018C21.9503 2.70503 21.4577 3.2028 21.461 3.81289L21.4727 6.02337L10.4203 6.08189L10.4086 3.87141C10.4053 3.26131 9.90756 2.76879 9.29746 2.77202L8.19222 2.77787C7.58213 2.7811 7.0896 3.27887 7.09283 3.88896L7.10454 6.09945L5.9993 6.1053C4.17123 6.11498 2.69145 7.61051 2.70113 9.43858L2.7889 26.0172C2.79858 27.8453 4.29411 29.325 6.12218 29.3154L26.0165 29.21C27.8446 29.2004 29.3244 27.7048 29.3147 25.8768L29.2269 9.29814C29.2172 7.47007 27.7217 5.99029 25.8936 5.99997ZM27.1042 25.8885C27.1074 26.4974 26.6138 26.9963 26.0048 26.9996L6.11048 27.1049C5.50149 27.1081 5.00261 26.6145 4.99939 26.0055L4.93525 13.892L27.0401 13.775L27.1042 25.8885Z" fill="#627073"/>
</svg>
