<svg width="60" height="60" viewBox="0 0 60 60" fill="none" xmlns="http://www.w3.org/2000/svg">
<circle cx="30" cy="30" r="30" fill="#71BDCD"/>
<path d="M43.25 29.5068H17.25" stroke="white" stroke-width="3" stroke-linecap="round"/>
<path d="M30.25 42.5068V16.5068" stroke="white" stroke-width="3" stroke-linecap="round"/>
<path d="M40.1798 39.4628C41.3078 39.4628 42.2838 39.8188 43.1078 40.5308C43.2598 40.6588 43.3358 40.8268 43.3358 41.0348C43.3358 41.2188 43.2678 41.3788 43.1318 41.5148C42.9958 41.6428 42.8398 41.7068 42.6638 41.7068C42.4958 41.7068 42.3478 41.6508 42.2198 41.5388C41.6518 41.0348 40.9718 40.7828 40.1798 40.7828C39.3318 40.7828 38.6118 41.0708 38.0198 41.6468C37.4358 42.2228 37.1438 42.9428 37.1438 43.8068C37.1438 44.6708 37.4358 45.3908 38.0198 45.9668C38.6118 46.5428 39.3318 46.8308 40.1798 46.8308C40.9718 46.8308 41.6518 46.5788 42.2198 46.0748C42.3478 45.9628 42.4958 45.9068 42.6638 45.9068C42.8398 45.9068 42.9958 45.9748 43.1318 46.1108C43.2678 46.2388 43.3358 46.3948 43.3358 46.5788C43.3358 46.7868 43.2598 46.9548 43.1078 47.0828C42.2838 47.7948 41.3078 48.1508 40.1798 48.1508C38.9638 48.1508 37.9198 47.7348 37.0478 46.9028C36.1838 46.0628 35.7518 45.0308 35.7518 43.8068C35.7518 42.5828 36.1838 41.5548 37.0478 40.7228C37.9198 39.8828 38.9638 39.4628 40.1798 39.4628Z" fill="white"/>
</svg>
