<svg width="24" height="28" viewBox="0 0 24 28" fill="none" xmlns="http://www.w3.org/2000/svg">
<path fill-rule="evenodd" clip-rule="evenodd" d="M12.5 23C17.7467 23 22 18.7467 22 13.5C22 8.25329 17.7467 4 12.5 4C7.25329 4 3 8.25329 3 13.5C3 18.7467 7.25329 23 12.5 23ZM15.4403 10.1998C16.0829 9.60005 17.1175 9.60005 17.7601 10.1998C18.4136 10.8097 18.4136 11.8069 17.7601 12.4168L12.2601 17.5502C11.6175 18.1499 10.5829 18.1499 9.94029 17.5502L7.19029 14.9835C6.53683 14.3736 6.53683 13.3764 7.19029 12.7665C7.83291 12.1667 8.86748 12.1667 9.5101 12.7665L11.1002 14.2506L15.4403 10.1998Z" fill="#3A9E44"/>
</svg>
