<svg width="26" height="27" viewBox="0 0 26 27" fill="none" xmlns="http://www.w3.org/2000/svg">
<path d="M12.9958 0.42857C5.8976 0.42857 0.138672 6.1875 0.138672 13.2857C0.138672 20.3839 5.8976 26.1429 12.9958 26.1429C20.094 26.1429 25.853 20.3839 25.853 13.2857C25.853 6.1875 20.094 0.42857 12.9958 0.42857ZM15.1387 21.3047C15.1387 21.606 14.9043 21.8571 14.6197 21.8571H11.4054C11.1041 21.8571 10.853 21.606 10.853 21.3047V18.1239C10.853 17.8225 11.1041 17.5714 11.4054 17.5714H14.6197C14.9043 17.5714 15.1387 17.8225 15.1387 18.1239V21.3047ZM15.1052 15.5458C15.0884 15.7801 14.8373 15.9643 14.536 15.9643H11.4389C11.1208 15.9643 10.8697 15.7801 10.8697 15.5458L10.5851 5.14955C10.5851 5.03237 10.6353 4.91518 10.7525 4.84821C10.853 4.76451 11.0036 4.71428 11.1543 4.71428H14.8373C14.988 4.71428 15.1387 4.76451 15.2391 4.84821C15.3563 4.91518 15.4065 5.03237 15.4065 5.14955L15.1052 15.5458Z" fill="#FFCB5B"/>
</svg>
