<svg width="48" height="61" viewBox="0 0 48 61" fill="none" xmlns="http://www.w3.org/2000/svg">
<path d="M35.7674 19.2119H12.2325C10.4502 19.2119 9 20.6619 9 22.4442V23.3856C9 25.1679 10.4502 26.6181 12.2325 26.6181H35.7677C37.55 26.6181 38.9999 25.1679 38.9999 23.3856V22.4442C38.9999 20.6619 37.55 19.2119 35.7674 19.2119Z" fill="#247DAA"/>
<path d="M37.8948 17.9314C37.5444 15.6422 36.6357 13.4886 35.215 11.612C33.9367 9.92355 32.276 8.53928 30.4023 7.57568V17.454H35.7676C36.5281 17.4542 37.2491 17.6257 37.8948 17.9314Z" fill="#247DAA"/>
<path d="M28.6444 7.38191C28.6444 5.59961 27.1944 4.14941 25.4121 4.14941H22.588C20.8054 4.14941 19.3555 5.59961 19.3555 7.38191V17.4541H28.6444V7.38191Z" fill="#247DAA"/>
<path d="M17.5979 17.4542V7.57568C15.7241 8.53928 14.0635 9.92355 12.7852 11.612C11.3643 13.4886 10.4559 15.6422 10.1055 17.9314C10.7514 17.6259 11.4721 17.4542 12.2327 17.4542H17.5979Z" fill="#247DAA"/>
<path d="M13.3443 28.7168C12.9503 28.7168 12.6496 29.0956 12.7326 29.496C13.8109 34.9506 18.4353 39.0416 23.9825 39.0416C29.5297 39.0416 34.1541 34.9398 35.2324 29.496C35.3154 29.0956 35.0147 28.7168 34.6207 28.7168H13.3443Z" fill="#247DAA"/>
<path d="M43.2791 48.4789C41.3091 44.0849 36.0626 41.8555 33.6571 41.6823C32.755 41.6174 32.0292 41.6715 31.3863 41.8014C29.1571 42.9486 26.6479 43.5871 23.9935 43.5871C21.3392 43.5871 18.83 42.9486 16.6008 41.8014C15.9579 41.6823 15.2321 41.6174 14.33 41.6823C11.9245 41.8555 6.67803 44.0849 4.708 48.4789C3.33935 51.7907 3.17345 54.4206 3.72299 55.3838C4.27252 56.347 4.8739 56.466 6.07665 56.466C7.27941 56.466 24.0039 56.466 24.0039 56.466C24.0039 56.466 40.7284 56.466 41.9312 56.466C43.1339 56.466 43.7353 56.347 44.2848 55.3838C44.8344 54.4206 44.6477 51.7907 43.2791 48.4789Z" fill="#247DAA"/>
</svg>
