<svg width="32" height="33" viewBox="0 0 32 33" fill="none" xmlns="http://www.w3.org/2000/svg">
<path d="M8.83021 13.1207H9.06984H22.9008H23.1465C23.38 13.1207 23.5705 12.923 23.5705 12.6807V11.1373C23.5705 10.8949 23.38 10.6972 23.1465 10.6972H23.0236C22.9315 9.84899 22.698 9.03903 22.3478 8.3056C21.6657 6.8515 20.529 5.67164 19.1343 4.95097L17.6043 8.08876V4.40887C17.6043 4.39612 17.6043 4.38974 17.6043 4.37698C17.5859 3.96881 17.2664 3.64355 16.867 3.64355H15.0851C14.6858 3.64355 14.3663 3.97519 14.3478 4.38336C14.3478 4.38974 14.3478 4.40249 14.3478 4.40887V8.06325L12.8363 4.95097C11.4416 5.67164 10.311 6.8515 9.62283 8.3056C9.2726 9.03903 9.04526 9.84899 8.9531 10.6972H8.83021C8.59672 10.6972 8.40625 10.8949 8.40625 11.1373V12.6743C8.40625 12.923 8.59672 13.1207 8.83021 13.1207Z" fill="#627073"/>
<path d="M9.68517 14.9194C9.45169 14.9194 9.2735 15.1427 9.32266 15.3786C9.96167 18.5929 12.702 21.0037 15.9893 21.0037C19.2765 21.0037 22.0169 18.5866 22.6559 15.3786C22.705 15.1427 22.5268 14.9194 22.2934 14.9194H9.68517Z" fill="#627073"/>
<path d="M27.4231 26.5648C26.2556 23.9755 23.1466 22.6617 21.7211 22.5597C21.1865 22.5214 20.7564 22.5533 20.3755 22.6298C19.0545 23.3059 17.5675 23.6821 15.9946 23.6821C14.4216 23.6821 12.9347 23.3059 11.6137 22.6298C11.2327 22.5597 10.8026 22.5214 10.2681 22.5597C8.84257 22.6617 5.73354 23.9755 4.56611 26.5648C3.75506 28.5164 3.65675 30.0661 3.9824 30.6338C4.30805 31.2014 4.66442 31.2715 5.37717 31.2715C6.08991 31.2715 16.0007 31.2715 16.0007 31.2715C16.0007 31.2715 25.9115 31.2715 26.6243 31.2715C27.337 31.2715 27.6934 31.2014 28.0191 30.6338C28.3447 30.0661 28.2341 28.5164 27.4231 26.5648Z" fill="#627073"/>
</svg>
