<svg width="26" height="20" viewBox="0 0 26 20" fill="none" xmlns="http://www.w3.org/2000/svg">
<g clip-path="url(#clip0)">
<path d="M19.2893 5.95025C18.9946 4.55814 18.2994 3.28251 17.2893 2.28025C16.1545 1.15718 14.6258 0.522003 13.0293 0.510254C9.49929 0.510254 6.5793 3.69025 6.5793 7.60025V7.78025H6.4193C4.98757 7.85281 3.64264 8.48859 2.67785 9.54892C1.71307 10.6092 1.20674 12.0081 1.2693 13.4403C1.20402 14.8741 1.70913 16.2755 2.6742 17.338C3.63926 18.4005 4.98576 19.0377 6.4193 19.1103H19.2793C22.5793 19.1103 25.2793 16.1103 25.2793 12.5303C25.2793 8.95025 22.5793 5.95025 19.2893 5.95025ZM13.2893 16.5403L8.0493 10.3503H11.1793V5.40025H15.3493V10.3503H18.4993L13.2893 16.5403Z" fill="#627073"/>
</g>
<defs>
<clipPath id="clip0">
<rect width="25" height="20" fill="white" transform="translate(0.5)"/>
</clipPath>
</defs>
</svg>
