<svg width="33" height="35" viewBox="0 0 33 35" fill="none" xmlns="http://www.w3.org/2000/svg">
<path d="M9.44764 14.0492C9.45449 13.9421 9.4189 13.8366 9.34881 13.756L6.17607 10.1077C6.10597 10.0271 6.00703 9.97797 5.90097 9.97105C5.79447 9.96418 5.69056 10.0001 5.61082 10.0709C4.15294 11.3662 2.94284 12.8937 2.01394 14.611C1.96303 14.7052 1.95112 14.816 1.98099 14.919C2.01086 15.022 2.07999 15.1088 2.17322 15.1602L6.39014 17.49C6.45113 17.5237 6.51696 17.5397 6.58194 17.5397C6.72359 17.5397 6.86093 17.4635 6.93367 17.329C7.54762 16.1939 8.34797 15.1839 9.31236 14.3272C9.39227 14.2564 9.4409 14.1564 9.44764 14.0492Z" fill="#627073"/>
<path d="M10.8631 12.6985C10.935 12.8355 11.0737 12.9136 11.2172 12.9136C11.2805 12.9136 11.3448 12.8984 11.4045 12.8664C12.5348 12.2605 13.7507 11.8652 15.0186 11.6913C15.2377 11.6613 15.3913 11.4573 15.3616 11.2358L14.7157 6.42266C14.686 6.20117 14.4836 6.04612 14.265 6.07594C12.3396 6.33988 10.4933 6.94013 8.77734 7.86002C8.58198 7.96477 8.50762 8.20969 8.61115 8.40725L10.8631 12.6985Z" fill="#627073"/>
<path d="M5.70407 19.2118L1.06592 17.9399C0.963413 17.9118 0.854061 17.926 0.761909 17.9794C0.669758 18.0328 0.60241 18.121 0.574532 18.2246C0.193362 19.645 0 21.1173 0 22.6004C0 22.8542 0.00598527 23.1088 0.0184411 23.3789C0.0284166 23.5958 0.20544 23.7649 0.418214 23.7649C0.424469 23.7649 0.430832 23.7648 0.437087 23.7645L5.23776 23.5403C5.34383 23.5354 5.44374 23.488 5.51519 23.4087C5.58674 23.3294 5.62422 23.2245 5.61926 23.1173C5.6109 22.9352 5.60685 22.7661 5.60685 22.6004C5.60685 21.6183 5.73438 20.6454 5.98587 19.7084C6.04362 19.4926 5.91749 19.2703 5.70407 19.2118Z" fill="#627073"/>
<path d="M23.6575 7.57082C21.9098 6.71927 20.0426 6.19156 18.1076 6.00201C18.0013 5.99122 17.8964 6.02425 17.8143 6.09242C17.7323 6.16066 17.6806 6.25897 17.6703 6.3659L17.207 11.2006C17.1856 11.4231 17.3468 11.621 17.567 11.6425C18.8424 11.7674 20.0724 12.115 21.2229 12.6755C21.2776 12.7022 21.3371 12.7157 21.3968 12.7157C21.4413 12.7157 21.486 12.7081 21.5289 12.693C21.6291 12.6577 21.7114 12.5834 21.7575 12.4867L23.8443 8.11113C23.9404 7.90981 23.8568 7.66783 23.6575 7.57082Z" fill="#627073"/>
<path d="M30.7152 14.361C30.741 14.2568 30.7251 14.1467 30.6705 14.0544C29.6766 12.374 28.4094 10.8944 26.9042 9.65713C26.8218 9.58944 26.7166 9.55772 26.6105 9.56846C26.5049 9.57952 26.4079 9.63244 26.3409 9.71571L23.3085 13.484C23.2415 13.5673 23.2099 13.6741 23.2209 13.7809C23.2317 13.8876 23.2841 13.9857 23.3666 14.0535C24.3625 14.872 25.2007 15.8506 25.858 16.962C25.9331 17.0888 26.0659 17.1592 26.2022 17.1592C26.2721 17.1592 26.3429 17.1407 26.4073 17.1018L30.5323 14.6096C30.6234 14.5545 30.6892 14.4651 30.7152 14.361Z" fill="#627073"/>
<path d="M32.2476 17.6091C32.1814 17.3958 31.9566 17.2769 31.7457 17.3439L27.1598 18.7962C26.9487 18.863 26.8312 19.0901 26.8973 19.3033C27.2265 20.3653 27.3933 21.4745 27.3933 22.6002C27.3933 22.7659 27.3893 22.9351 27.3809 23.1171C27.376 23.2243 27.4134 23.3292 27.485 23.4085C27.5566 23.4878 27.6564 23.5352 27.7624 23.5401L32.5631 23.7643C32.5695 23.7645 32.5757 23.7647 32.582 23.7647C32.7947 23.7647 32.9717 23.5956 32.9818 23.3787C32.9941 23.1086 33.0002 22.854 33.0002 22.6002C33.0001 20.8991 32.747 19.2198 32.2476 17.6091Z" fill="#627073"/>
<path d="M14.9768 20.407C15.0459 20.407 15.1146 20.4093 15.183 20.413L21.6886 16.5335C21.8479 16.4384 22.05 16.4622 22.1834 16.5916C22.3169 16.7208 22.349 16.9239 22.2619 17.0886L18.7131 23.8114C18.7262 23.9409 18.7331 24.0716 18.7331 24.2035C18.7331 25.2176 18.3424 26.171 17.6329 26.888C16.9235 27.6051 15.9801 28 14.9768 28C13.9734 28 13.0302 27.605 12.3207 26.888C11.6112 26.171 11.2206 25.2176 11.2206 24.2035C11.2206 23.1894 11.6113 22.236 12.3207 21.519C13.0302 20.8019 13.9735 20.407 14.9768 20.407Z" fill="#627073"/>
</svg>
