<svg width="32" height="32" viewBox="0 0 32 32" fill="none" xmlns="http://www.w3.org/2000/svg">
<path d="M20.1362 13.2986C21.877 11.727 24.2311 9.60141 24.4457 4.52344H26V3H6V4.52344H7.55431C7.76887 9.60141 10.123 11.727 11.8638 13.2986C13.0316 14.3529 13.6923 14.9981 13.6923 16C13.6923 17.0019 13.0316 17.6471 11.8638 18.7014C10.123 20.273 7.76887 22.3986 7.55431 27.4766H6V29H26V27.4766H24.4457C24.2311 22.3986 21.877 20.273 20.1362 18.7014C18.9684 17.6471 18.3077 17.0019 18.3077 16C18.3077 14.9981 18.9684 14.3529 20.1362 13.2986ZM15.2308 21.7097C14.9932 21.7583 14.7585 21.8289 14.5294 21.9228L9.81774 23.8534C10.5872 21.9161 11.8265 20.7967 12.9004 19.8272C14.0988 18.7452 15.2308 17.7233 15.2308 16V21.7097ZM19.0996 19.8272C20.1735 20.7967 21.4128 21.9161 22.1823 23.8534L17.4706 21.9227C17.2415 21.8289 17.0068 21.7582 16.7692 21.7097V16C16.7692 17.7233 17.9012 18.7452 19.0996 19.8272ZM9.79072 8.07812C9.41877 7.11841 9.1619 5.95963 9.09467 4.52344H22.9053C22.8381 5.95963 22.5812 7.11841 22.2092 8.07812H9.79072Z" fill="#627073"/>
</svg>
