<svg width="23" height="23" viewBox="0 0 23 23" fill="none" xmlns="http://www.w3.org/2000/svg">
<path d="M11.5 0C5.15897 0 0 5.15897 0 11.5C0 17.841 5.15897 23 11.5 23C17.841 23 23 17.841 23 11.5C23 5.15897 17.841 0 11.5 0ZM11.6106 5.30769C12.3979 5.30769 13.1675 5.54116 13.8222 5.97857C14.4768 6.41599 14.987 7.0377 15.2883 7.76509C15.5896 8.49248 15.6685 9.29288 15.5149 10.0651C15.3613 10.8373 14.9821 11.5466 14.4254 12.1033C13.8687 12.66 13.1594 13.0391 12.3872 13.1927C11.615 13.3463 10.8146 13.2675 10.0872 12.9662C9.35981 12.6649 8.7381 12.1547 8.30069 11.5001C7.86328 10.8454 7.62981 10.0758 7.62981 9.28846C7.62981 8.2327 8.04921 7.22017 8.79575 6.47363C9.54229 5.72709 10.5548 5.30769 11.6106 5.30769ZM11.5 21.2308C10.1578 21.2313 8.83017 20.9535 7.60084 20.4149C6.37151 19.8763 5.26726 19.0885 4.35784 18.1014C4.84659 15.5703 9.23649 15.0385 11.5 15.0385C13.7635 15.0385 18.1534 15.5703 18.6422 18.1009C17.7329 19.0881 16.6286 19.876 15.3993 20.4148C14.1699 20.9535 12.8422 21.2314 11.5 21.2308Z" fill="#627073"/>
</svg>
