<svg width="32" height="32" viewBox="0 0 32 32" fill="none" xmlns="http://www.w3.org/2000/svg">
<path d="M16.4999 23.179C16.2181 23.179 15.9535 23.0696 15.7541 22.8702L11.2089 18.3249C10.7976 17.9136 10.7976 17.2447 11.2089 16.8334C11.4082 16.6341 11.6729 16.5246 11.9546 16.5246C12.2363 16.5246 12.501 16.6341 12.7003 16.8334L15.4453 19.5784V6.05459C15.4453 5.47306 15.9183 5 16.4999 5C17.0814 5 17.5544 5.47306 17.5544 6.05459V19.5784L20.2994 16.8334C20.4987 16.6341 20.7634 16.5246 21.0451 16.5246C21.3268 16.5246 21.5915 16.6341 21.7909 16.8334C22.2021 17.2447 22.2021 17.9136 21.7909 18.3249L17.2456 22.8702C17.0462 23.0691 16.7816 23.179 16.4999 23.179Z" fill="white"/>
<path d="M6.85808 28.0001C5.83362 28.0001 5 27.1665 5 26.1421V16.5001C5 15.9186 5.47306 15.4456 6.05459 15.4456C6.63611 15.4456 7.10917 15.9186 7.10917 16.5001V25.891H25.8908V16.5001C25.8908 15.9186 26.3639 15.4456 26.9454 15.4456C27.5269 15.4456 28 15.9186 28 16.5001V26.1421C28 27.1665 27.1664 28.0001 26.1419 28.0001H6.85808Z" fill="white"/>
</svg>
