<svg width="26" height="20" viewBox="0 0 26 20" fill="none" xmlns="http://www.w3.org/2000/svg">
<g clip-path="url(#clip0)">
<path d="M12.9134 2.30998C14.0387 2.32608 15.114 2.77771 15.9134 3.56998C16.6769 4.31519 17.2053 5.26776 17.4334 6.30998L17.7434 7.72998H19.1934C21.4934 7.72998 23.3734 9.86998 23.3734 12.51C23.3734 15.15 21.4834 17.31 19.1834 17.31H6.31339C5.35245 17.2359 4.46012 16.7837 3.83211 16.0526C3.20411 15.3214 2.8917 14.3711 2.96339 13.41C2.90005 12.4549 3.21652 11.5134 3.84393 10.7905C4.47133 10.0676 5.35888 9.62172 6.31339 9.54998H6.43339L8.34339 9.61998L8.27339 7.70998V7.56998C8.27339 4.64998 10.3534 2.30998 12.9134 2.30998ZM12.9134 0.50998C9.36339 0.47998 6.43339 3.65998 6.43339 7.56998V7.74998H6.31339C4.88167 7.82254 3.53673 8.45832 2.57195 9.51864C1.60717 10.579 1.10083 11.9778 1.16339 13.41C1.10077 14.8432 1.6068 16.2431 2.57133 17.305C3.53585 18.3669 4.8808 19.0049 6.31339 19.08H19.1834C22.4734 19.08 25.1834 16.08 25.1834 12.5C25.1834 8.91998 22.5034 5.91998 19.1834 5.91998C18.8887 4.52787 18.1935 3.25224 17.1834 2.24998C16.0486 1.1269 14.5199 0.491729 12.9234 0.47998L12.9134 0.50998Z" fill="white"/>
<path d="M13.1636 15.7199L8.68359 10.4099H11.3736V6.16992H14.9536V10.4099H17.6336L13.1636 15.7199Z" fill="white"/>
</g>
<defs>
<clipPath id="clip0">
<rect width="25" height="19" fill="white" transform="translate(0.433594 0.25)"/>
</clipPath>
</defs>
</svg>
