<svg width="31" height="25" viewBox="0 0 31 25" fill="none" xmlns="http://www.w3.org/2000/svg">
<path d="M21.0191 15.3883H19.9915L19.6273 15.0371C20.902 13.5542 21.6694 11.6291 21.6694 9.53491C21.6694 4.86524 17.8843 1.08008 13.2146 1.08008C8.54493 1.08008 4.75977 4.86524 4.75977 9.53491C4.75977 14.2046 8.54493 17.9897 13.2146 17.9897C15.3088 17.9897 17.2339 17.2223 18.7167 15.9476L19.0679 16.3118V17.3394L25.5717 23.8301L27.5098 21.892L21.0191 15.3883ZM13.2146 15.3883C9.97575 15.3883 7.36125 12.7738 7.36125 9.53491C7.36125 6.29606 9.97575 3.68156 13.2146 3.68156C16.4534 3.68156 19.0679 6.29606 19.0679 9.53491C19.0679 12.7738 16.4534 15.3883 13.2146 15.3883Z" fill="#627073"/>
</svg>
