<svg width="25" height="17" viewBox="0 0 25 17" fill="none" xmlns="http://www.w3.org/2000/svg">
<g clip-path="url(#clip0)">
<path d="M3.72205 12.25H22.4889C23.656 12.25 24.6055 13.1469 24.6055 14.2493C24.6055 15.3531 23.656 16.25 22.4889 16.25H3.72205C2.55498 16.25 1.60547 15.3531 1.60547 14.2493C1.60547 13.1469 2.55498 12.25 3.72205 12.25ZM3.72205 14.977H22.4889C22.9129 14.977 23.2578 14.6512 23.2578 14.2507C23.2578 13.8488 22.9129 13.523 22.4889 13.523H3.72205C3.29808 13.523 2.95312 13.8488 2.95312 14.2507C2.95312 14.6512 3.29808 14.977 3.72205 14.977Z" fill="white"/>
<path d="M22.4889 10.25H3.72205C2.55498 10.25 1.60547 9.35313 1.60547 8.24932C1.60547 7.14691 2.55498 6.25 3.72205 6.25H22.4889C23.656 6.25 24.6055 7.14691 24.6055 8.24932C24.6055 9.35313 23.656 10.25 22.4889 10.25ZM22.4889 7.52299H3.72205C3.29808 7.52299 2.95312 7.84884 2.95312 8.25068C2.95312 8.65116 3.29808 8.97701 3.72205 8.97701H22.4889C22.9129 8.97701 23.2578 8.65116 23.2578 8.25068C23.2578 7.8488 22.9129 7.52299 22.4889 7.52299Z" fill="white"/>
<path d="M22.4889 4.25H3.72205C2.55498 4.25 1.60547 3.35309 1.60547 2.24932C1.60547 1.14691 2.55498 0.25 3.72205 0.25H22.4889C23.656 0.25 24.6055 1.14691 24.6055 2.24932C24.6055 3.35309 23.656 4.25 22.4889 4.25ZM22.4889 1.52299H3.72205C3.29808 1.52299 2.95312 1.84884 2.95312 2.25068C2.95312 2.65116 3.29808 2.97701 3.72205 2.97701H22.4889C22.9129 2.97701 23.2578 2.65116 23.2578 2.25068C23.2578 1.84879 22.9129 1.52299 22.4889 1.52299Z" fill="white"/>
</g>
<defs>
<clipPath id="clip0">
<rect width="24" height="16" fill="white" transform="matrix(1 0 0 -1 0.945312 16.25)"/>
</clipPath>
</defs>
</svg>
