<svg width="24" height="28" viewBox="0 0 24 28" fill="none" xmlns="http://www.w3.org/2000/svg">
<path d="M17.1134 3.97594C17.1134 3.42366 16.6657 2.97594 16.1134 2.97594H14.7277C14.4238 2.97594 14.1543 2.78066 14.0596 2.49186C13.7671 1.59954 12.9394 1 12.0001 1C11.0607 1 10.2331 1.59954 9.94051 2.49186C9.84585 2.78066 9.57634 2.97594 9.27242 2.97594H7.88672C7.33444 2.97594 6.88672 3.42366 6.88672 3.97594V4.31648C6.88672 4.86876 7.33443 5.31648 7.88672 5.31648H16.1134C16.6657 5.31648 17.1134 4.86876 17.1134 4.31648V3.97594Z" fill="#627073"/>
<path fill-rule="evenodd" clip-rule="evenodd" d="M18.5197 5.11719C18.5197 4.5649 18.9674 4.11719 19.5197 4.11719H20.1877C20.74 4.11719 21.1877 4.5649 21.1877 5.11719V24.0002C21.1877 24.5525 20.74 25.0002 20.1877 25.0002H3.8125C3.26022 25.0002 2.8125 24.5525 2.8125 24.0002V5.11719C2.8125 4.5649 3.26022 4.11719 3.8125 4.11719H4.48046C5.03275 4.11719 5.48046 4.5649 5.48046 5.11719V5.72295C5.48046 6.27523 5.92818 6.72295 6.48046 6.72295H17.5197C18.072 6.72295 18.5197 6.27523 18.5197 5.72295V5.11719ZM12 23C15.866 23 19 19.866 19 16C19 12.134 15.866 9 12 9C8.13401 9 5 12.134 5 16C5 19.866 8.13401 23 12 23Z" fill="#627073"/>
<path fill-rule="evenodd" clip-rule="evenodd" d="M16.6339 12.3905C17.122 12.9112 17.122 13.7554 16.6339 14.2761L11.6339 19.6095C11.1457 20.1302 10.3543 20.1302 9.86612 19.6095L7.36612 16.9428C6.87796 16.4221 6.87796 15.5779 7.36612 15.0572C7.85427 14.5365 8.64573 14.5365 9.13388 15.0572L10.75 16.781L14.8661 12.3905C15.3543 11.8698 16.1457 11.8698 16.6339 12.3905Z" fill="#627073"/>
</svg>
