<svg width="50" height="51" viewBox="0 0 50 51" fill="none" xmlns="http://www.w3.org/2000/svg">
<g clip-path="url(#clip0)">
<path d="M1.36719 48.9369H27.9308C28.7407 48.9369 29.3961 48.2815 29.3961 47.472V46.0068H7.22695C4.80347 46.0068 2.83203 44.0358 2.83203 41.6123V4.8916H1.36719C0.557709 4.8916 -0.0976562 5.54697 -0.0976562 6.35683V47.472C-0.0976562 48.2815 0.557709 48.9369 1.36719 48.9369Z" fill="#247DAA"/>
<path d="M23.5371 10.7515H31.4683L23.5371 2.82031V10.7515Z" fill="#247DAA"/>
<path d="M7.22656 1.96191C6.4167 1.96191 5.76172 2.61728 5.76172 3.42676V41.6123C5.76172 42.4218 6.4167 43.0771 7.22656 43.0771H30.8605C31.67 43.0771 32.3254 42.4218 32.3254 41.6123V39.7293C31.3721 39.9792 30.3963 40.1474 29.3957 40.1474C22.9336 40.1474 17.6762 34.89 17.6762 28.4279C17.6762 21.9662 22.9336 16.7088 29.3957 16.7088C30.4131 16.7088 31.3832 16.8801 32.3254 17.125V13.6811H22.0711C21.2612 13.6811 20.6062 13.0261 20.6062 12.2162V1.96191H7.22656Z" fill="#247DAA"/>
<path d="M40.7074 35.5982C40.1356 35.0264 39.209 35.0264 38.6372 35.5971L36.5483 33.5082C37.571 32.0719 38.1863 30.3259 38.1863 28.4281C38.1863 23.5739 34.2511 19.6387 29.3969 19.6387C24.5423 19.6387 20.6074 23.5739 20.6074 28.4281C20.6074 33.2827 24.5423 37.2176 29.3969 37.2176C31.2943 37.2176 33.0403 36.6026 34.4769 35.5799L36.5654 37.6685L36.5643 37.6692C35.9921 38.2414 35.9921 39.1688 36.5643 39.7414L44.904 48.0807C46.0465 49.2236 47.9062 49.2213 49.0471 48.0807C50.1885 46.9393 50.1885 45.0797 49.0471 43.9379L40.7074 35.5982Z" fill="#247DAA"/>
</g>
<defs>
<clipPath id="clip0">
<rect width="50" height="50" fill="white" transform="translate(0 0.399414)"/>
</clipPath>
</defs>
</svg>
