<svg width="45" height="46" viewBox="0 0 45 46" fill="none" xmlns="http://www.w3.org/2000/svg">
<path d="M16.838 0.399414C26.1221 0.399414 33.6758 7.95312 33.6758 17.2372C33.6758 26.5212 26.1221 34.0749 16.838 34.0749C7.55402 34.0749 0.000312805 26.5212 0.000312805 17.2372C0.000312805 7.95312 7.55402 0.399414 16.838 0.399414ZM16.838 28.894C23.2662 28.894 28.4949 23.665 28.4949 17.2372C28.4949 10.8093 23.2662 5.58026 16.838 5.58026C10.4102 5.58026 5.18115 10.8093 5.18115 17.2372C5.18115 23.665 10.4102 28.894 16.838 28.894Z" fill="#247DAA"/>
<path d="M16.838 8.1709C11.8393 8.1709 7.77148 12.2387 7.77148 17.2374C7.77148 22.2361 11.8393 26.3039 16.838 26.3039C21.8367 26.3039 25.9044 22.2361 25.9044 17.2374C25.9044 12.2387 21.8367 8.1709 16.838 8.1709ZM15.5427 22.9545L10.7414 18.1531L12.5729 16.3216L15.5427 19.2915L21.103 13.7312L22.9346 15.5627L15.5427 22.9545Z" fill="#247DAA"/>
<path d="M27.5429 33.4355C29.7218 31.9905 31.5924 30.1199 33.0374 27.9409L45 39.9048L39.5054 45.3994L27.5429 33.4355Z" fill="#247DAA"/>
</svg>
