<svg width="24" height="28" viewBox="0 0 24 28" fill="none" xmlns="http://www.w3.org/2000/svg">
<path d="M9 19L15 13" stroke="#D13E3A" stroke-width="2.4" stroke-miterlimit="10" stroke-linecap="round"/>
<path d="M15 19L9 13" stroke="#D13E3A" stroke-width="2.4" stroke-miterlimit="10" stroke-linecap="round"/>
<path d="M17.1136 3.97594C17.1136 3.42366 16.6658 2.97594 16.1136 2.97594H14.7279C14.4239 2.97594 14.1544 2.78066 14.0598 2.49186C13.7672 1.59954 12.9395 1 12.0002 1C11.0609 1 10.2332 1.59954 9.94063 2.49186C9.84596 2.78066 9.57645 2.97594 9.27253 2.97594H7.88683C7.33455 2.97594 6.88683 3.42366 6.88683 3.97594V4.31648C6.88683 4.86876 7.33455 5.31648 7.88683 5.31648H16.1136C16.6658 5.31648 17.1136 4.86876 17.1136 4.31648V3.97594Z" fill="#D13E3A"/>
<path fill-rule="evenodd" clip-rule="evenodd" d="M18.5197 5.11719C18.5197 4.5649 18.9674 4.11719 19.5197 4.11719H20.1877C20.74 4.11719 21.1877 4.5649 21.1877 5.11719V24.0002C21.1877 24.5525 20.74 25.0002 20.1877 25.0002H3.8125C3.26022 25.0002 2.8125 24.5525 2.8125 24.0002V5.11719C2.8125 4.5649 3.26022 4.11719 3.8125 4.11719H4.48046C5.03275 4.11719 5.48046 4.5649 5.48046 5.11719V5.72295C5.48046 6.27523 5.92818 6.72295 6.48046 6.72295H17.5197C18.072 6.72295 18.5197 6.27523 18.5197 5.72295V5.11719ZM12 23C15.866 23 19 19.866 19 16C19 12.134 15.866 9 12 9C8.13401 9 5 12.134 5 16C5 19.866 8.13401 23 12 23Z" fill="#D13E3A"/>
</svg>
