<svg width="58" height="59" viewBox="0 0 58 59" fill="none" xmlns="http://www.w3.org/2000/svg">
<path d="M52.7107 50.9213V47.2735H56.3585V43.6257H53.9266V33.8983C53.9608 32.9252 53.1997 32.1086 52.2265 32.0744C52.1852 32.0729 52.1439 32.0729 52.1027 32.0744H25.9602C24.9871 32.0402 24.1705 32.8013 24.1363 33.7745C24.1348 33.8157 24.1348 33.8571 24.1363 33.8983V43.6257H21.7044V47.2735H25.3522V50.9213H13.8008V41.3762C19.2117 39.9171 23.2243 32.3175 23.2243 22.8941C23.2243 12.437 18.2998 4.22949 11.9769 4.22949C5.65409 4.22949 0.72956 12.437 0.72956 22.8941C0.72956 32.3175 4.74214 39.9171 10.153 41.3762V50.9213H0V54.5691H58V50.9213H52.7107ZM49.0629 50.9213H29V47.2735H49.0629V50.9213Z" fill="#247DAA"/>
</svg>
