<svg width="26" height="21" viewBox="0 0 26 21" fill="none" xmlns="http://www.w3.org/2000/svg">
<g clip-path="url(#clip0)">
<path d="M19.2209 6.70025C18.9262 5.30814 18.231 4.03251 17.2209 3.03025C16.0862 1.90718 14.5575 1.272 12.9609 1.26025C9.43094 1.26025 6.51094 4.44025 6.51094 8.35025V8.53025H6.35094C4.91921 8.60281 3.57428 9.23859 2.60949 10.2989C1.64471 11.3592 1.13838 12.7581 1.20094 14.1903C1.13566 15.6241 1.64078 17.0255 2.60584 18.088C3.5709 19.1505 4.9174 19.7877 6.35094 19.8603H19.2109C22.5109 19.8603 25.2109 16.8603 25.2109 13.2803C25.2109 9.70025 22.5109 6.70025 19.2209 6.70025ZM13.2209 17.2903L7.98094 11.1003H11.1109V6.15025H15.2809V11.1003H18.4309L13.2209 17.2903Z" fill="white"/>
</g>
<defs>
<clipPath id="clip0">
<rect width="25" height="20" fill="white" transform="translate(0.431641 0.75)"/>
</clipPath>
</defs>
</svg>
