<svg width="47" height="48" viewBox="0 0 47 48" fill="none" xmlns="http://www.w3.org/2000/svg">
<path d="M6.78513 25.4893H10.4199C10.0494 26.5036 9.84702 27.5983 9.84702 28.7392V42.4767C9.84702 42.9524 9.92982 43.409 10.0805 43.8336H4.07133C1.82662 43.8336 0.000507355 42.0074 0.000507355 39.7628V32.2739C0.000414848 28.5329 3.04403 25.4893 6.78513 25.4893Z" fill="#247DAA"/>
<path d="M37.1534 28.7392C37.1534 27.5982 36.951 26.5036 36.5805 25.4893H40.2153C43.9564 25.4893 47 28.5329 47 32.274V39.7629C47 42.0075 45.1739 43.8337 42.9292 43.8337H36.9199C37.0706 43.4089 37.1534 42.9524 37.1534 42.4767V28.7392Z" fill="#247DAA"/>
<path d="M19.3451 21.9546H27.6547C31.3958 21.9546 34.4395 24.9982 34.4395 28.7393V42.4767C34.4395 43.2261 33.8319 43.8337 33.0825 43.8337H13.9173C13.1679 43.8337 12.5604 43.2262 12.5604 42.4767V28.7393C12.5604 24.9982 15.604 21.9546 19.3451 21.9546Z" fill="#247DAA"/>
<path d="M23.5007 3.96484C27.9998 3.96484 31.6602 7.62516 31.6602 12.1244C31.6602 15.1762 29.9758 17.8415 27.4883 19.2409C26.3084 19.9046 24.9481 20.2839 23.5007 20.2839C22.0532 20.2839 20.693 19.9046 19.5131 19.2409C17.0255 17.8415 15.3412 15.1761 15.3412 12.1244C15.3412 7.62525 19.0015 3.96484 23.5007 3.96484Z" fill="#247DAA"/>
<path d="M37.8275 11.5703C41.1923 11.5703 43.9297 14.3077 43.9297 17.6725C43.9297 21.0373 41.1923 23.7747 37.8275 23.7747C36.9739 23.7747 36.1612 23.5979 35.4229 23.2801C34.1463 22.7305 33.0938 21.7577 32.4425 20.5391C31.9853 19.6838 31.7253 18.7081 31.7253 17.6725C31.7253 14.3078 34.4627 11.5703 37.8275 11.5703Z" fill="#247DAA"/>
<path d="M9.17123 11.5703C12.536 11.5703 15.2734 14.3077 15.2734 17.6725C15.2734 18.7082 15.0134 19.6839 14.5562 20.5391C13.9049 21.7578 12.8524 22.7306 11.5759 23.2801C10.8375 23.5979 10.0248 23.7747 9.17123 23.7747C5.80641 23.7747 3.06902 21.0373 3.06902 17.6725C3.06902 14.3077 5.80641 11.5703 9.17123 11.5703Z" fill="#247DAA"/>
</svg>
