<svg width="25" height="28" viewBox="0 0 25 28" fill="none" xmlns="http://www.w3.org/2000/svg">
<g clip-path="url(#clip0)">
<path d="M7.15707 11.2393C7.16226 11.1536 7.1353 11.0692 7.08219 11.0047L4.67861 8.08609C4.6255 8.0216 4.55054 7.98228 4.47019 7.97674C4.38951 7.97125 4.3108 7.99998 4.25038 8.05666C3.14593 9.09284 2.22919 10.3148 1.52547 11.6887C1.48691 11.7641 1.47788 11.8527 1.50051 11.9351C1.52314 12.0175 1.57551 12.0869 1.64614 12.1281L4.84078 13.9919C4.88698 14.0189 4.93686 14.0316 4.98608 14.0316C5.09339 14.0316 5.19744 13.9707 5.25254 13.8631C5.71766 12.955 6.32398 12.1471 7.05458 11.4616C7.11512 11.405 7.15196 11.325 7.15707 11.2393Z" fill="#d56f03"/>
<path d="M8.22966 10.1589C8.28415 10.2685 8.38926 10.331 8.49796 10.331C8.54592 10.331 8.59457 10.3188 8.63983 10.2932C9.49612 9.8085 10.4173 9.49223 11.3778 9.35315C11.5438 9.32912 11.6602 9.16598 11.6377 8.98874L11.1483 5.13823C11.1258 4.96104 10.9725 4.837 10.8069 4.86085C9.34824 5.072 7.94951 5.5522 6.64956 6.28811C6.50156 6.37191 6.44523 6.56785 6.52366 6.7259L8.22966 10.1589Z" fill="#d56f03"/>
<path d="M4.32127 15.3691L0.807514 14.3516C0.729859 14.3292 0.647016 14.3405 0.577204 14.3832C0.507392 14.4259 0.456371 14.4965 0.435252 14.5794C0.146486 15.7157 0 16.8935 0 18.08C0 18.2831 0.0045343 18.4868 0.0139705 18.7028C0.0215277 18.8764 0.155637 19.0116 0.316829 19.0116C0.321568 19.0116 0.326388 19.0115 0.331126 19.0113L3.968 18.832C4.04835 18.828 4.12405 18.7901 4.17817 18.7267C4.23238 18.6632 4.26077 18.5793 4.25701 18.4935C4.25068 18.3479 4.24762 18.2126 4.24762 18.08C4.24762 17.2944 4.34423 16.516 4.53475 15.7664C4.5785 15.5938 4.48295 15.416 4.32127 15.3691Z" fill="#d56f03"/>
<path d="M17.9214 6.05646C16.5974 5.37522 15.1828 4.95305 13.717 4.80141C13.6364 4.79278 13.5569 4.8192 13.4948 4.87374C13.4326 4.92833 13.3934 5.00698 13.3857 5.09253L13.0346 8.96031C13.0185 9.13828 13.1406 9.29659 13.3074 9.31381C14.2736 9.4137 15.2054 9.69178 16.077 10.1402C16.1185 10.1616 16.1635 10.1724 16.2087 10.1724C16.2425 10.1724 16.2763 10.1663 16.3088 10.1542C16.3848 10.1259 16.4471 10.0665 16.482 9.98917L18.0629 6.48871C18.1357 6.32765 18.0724 6.13407 17.9214 6.05646Z" fill="#d56f03"/>
<path d="M23.2689 11.489C23.2885 11.4056 23.2765 11.3175 23.2351 11.2438C22.4822 9.89937 21.5222 8.71573 20.3818 7.7259C20.3194 7.67175 20.2397 7.64637 20.1593 7.65496C20.0793 7.66381 20.0058 7.70615 19.9551 7.77277L17.6578 10.7874C17.6071 10.8541 17.5832 10.9395 17.5915 11.0249C17.5997 11.1103 17.6394 11.1887 17.7018 11.243C18.4563 11.8978 19.0913 12.6807 19.5893 13.5698C19.6461 13.6712 19.7468 13.7276 19.85 13.7276C19.903 13.7276 19.9566 13.7127 20.0054 13.6816L23.1304 11.6879C23.1994 11.6438 23.2492 11.5723 23.2689 11.489Z" fill="#d56f03"/>
<path d="M24.4304 14.0875C24.3803 13.9168 24.21 13.8217 24.0502 13.8753L20.576 15.0371C20.4161 15.0906 20.3272 15.2723 20.3772 15.4429C20.6266 16.2924 20.753 17.1798 20.753 18.0804C20.753 18.213 20.7499 18.3482 20.7436 18.4939C20.7399 18.5796 20.7682 18.6636 20.8225 18.727C20.8767 18.7905 20.9523 18.8284 21.0326 18.8323L24.6695 19.0116C24.6743 19.0118 24.6791 19.012 24.6838 19.012C24.8449 19.012 24.9791 18.8767 24.9867 18.7031C24.996 18.4871 25.0006 18.2834 25.0006 18.0804C25.0005 16.7195 24.8088 15.3761 24.4304 14.0875Z" fill="#d56f03"/>
<path d="M11.3465 16.3258C11.3988 16.3258 11.4509 16.3277 11.5027 16.3306L16.4312 13.227C16.5518 13.1509 16.705 13.17 16.806 13.2734C16.9072 13.3768 16.9315 13.5394 16.8655 13.6711L14.177 19.0493C14.1869 19.1529 14.1922 19.2575 14.1922 19.363C14.1922 20.1743 13.8962 20.937 13.3587 21.5106C12.8212 22.0843 12.1066 22.4002 11.3465 22.4002C10.5863 22.4002 9.87175 22.0842 9.33429 21.5106C8.79679 20.937 8.50084 20.1743 8.50084 19.363C8.50084 18.5517 8.79683 17.789 9.33429 17.2154C9.87175 16.6418 10.5864 16.3258 11.3465 16.3258Z" fill="#d56f03"/>
</g>
<defs>
<clipPath id="clip0">
<rect width="25" height="28" fill="white"/>
</clipPath>
</defs>
</svg>
